<?xml version="1.0" encoding="UTF-8"?>
<svg width="76px" height="76px" viewBox="0 0 76 76" version="1.1" xmlns="http://www.w3.org/2000/svg" xmlns:xlink="http://www.w3.org/1999/xlink">
    <title>编组 17</title>
    <defs>
        <linearGradient x1="50%" y1="0%" x2="50%" y2="100%" id="linearGradient-1">
            <stop stop-color="#FFA9A9" offset="0%"></stop>
            <stop stop-color="#E63B3B" offset="100%"></stop>
        </linearGradient>
        <filter color-interpolation-filters="auto" id="filter-2">
            <feColorMatrix in="SourceGraphic" type="matrix" values="0 0 0 0 1.000000 0 0 0 0 1.000000 0 0 0 0 1.000000 0 0 0 1.000000 0"></feColorMatrix>
        </filter>
    </defs>
    <g id="页面-1" stroke="none" stroke-width="1" fill="none" fill-rule="evenodd">
        <g id="画板" transform="translate(-136.000000, -298.000000)">
            <g id="编组-17" transform="translate(136.000000, 298.000000)">
                <g id="编组-3备份-2" fill="url(#linearGradient-1)">
                    <rect id="矩形备份" x="0" y="0" width="76" height="76" rx="23.31"></rect>
                </g>
                <g filter="url(#filter-2)" id="基础功能">
                    <g transform="translate(22.000000, 20.000000)">
                        <path d="M11.5593583,3.52756281 C12.2010695,3.52756281 12.7486631,3.75044648 13.2064171,4.19621383 C13.6641711,4.64198119 13.8909091,5.18633171 13.8909091,5.82926539 L13.8909091,15.1046553 C13.8909091,15.747589 13.6641711,16.2962257 13.2064171,16.7548518 C12.7486631,17.2134778 12.2010695,17.4406477 11.5593583,17.4406477 L2.2973262,17.4406477 C1.65561497,17.4406477 1.11229947,17.2134778 0.667379679,16.7548518 C0.222459893,16.2962257 0.00427807487,15.747589 0.00427807487,15.1046553 L0.00427807487,5.82926539 C0.00427807487,5.18633171 0.226737968,4.64198119 0.671657754,4.19621383 C1.11657754,3.75044648 1.65989305,3.52756281 2.30160428,3.52756281 C2.2973262,3.53184903 11.5593583,3.52756281 11.5593583,3.52756281 Z M11.5593583,22.0826289 C12.2010695,22.0826289 12.7486631,22.3055126 13.2064171,22.7512799 C13.6641711,23.1970473 13.8909091,23.7413978 13.8909091,24.3843315 L13.8909091,33.6982974 C13.8909091,34.3412311 13.6641711,34.8855816 13.2064171,35.331349 C12.7486631,35.7771163 12.2010695,36 11.5593583,36 L2.2973262,36 C1.65561497,36 1.11229947,35.7771163 0.667379679,35.331349 C0.222459893,34.8855816 0,34.3412311 0,33.6982974 L0,24.3800452 C0,23.7371116 0.222459893,23.192761 0.667379679,22.7469937 C1.11229947,22.3012263 1.65561497,22.0783427 2.2973262,22.0783427 L11.5593583,22.0783427 L11.5593583,22.0826289 Z M30.113369,22.0826289 C30.7550802,22.0826289 31.2983957,22.3055126 31.7433155,22.7512799 C32.1882353,23.1970473 32.4106952,23.7413978 32.4106952,24.3843315 L32.4106952,33.6982974 C32.4106952,34.3412311 32.1882353,34.8855816 31.7433155,35.331349 C31.2983957,35.7771163 30.7550802,36 30.113369,36 L20.8513369,36 C20.2096257,36 19.6620321,35.7771163 19.2042781,35.331349 C18.7465241,34.8855816 18.5197861,34.3412311 18.5197861,33.6982974 L18.5197861,24.3800452 C18.5197861,23.7371116 18.7465241,23.192761 19.2042781,22.7469937 C19.6620321,22.3012263 20.2096257,22.0783427 20.8513369,22.0783427 L30.113369,22.0783427 L30.113369,22.0826289 Z M35.259893,7.60804858 C35.7518717,8.1009644 36,8.68389094 36,9.35254197 C36,10.021193 35.7518717,10.5869746 35.259893,11.0584593 L28.3679144,17.9635671 C27.8759358,18.4564829 27.2983957,18.7050839 26.6438503,18.7050839 C25.9893048,18.7050839 25.4160428,18.4564829 24.9197861,17.9635671 L18.0363636,11.0627456 C17.5657754,10.5912609 17.3304813,10.0254792 17.3304813,9.35682819 C17.3304813,8.68817716 17.5657754,8.10525063 18.0363636,7.6123348 L24.9283422,0.707227051 C25.4203209,0.23574235 25.997861,0 26.6524064,0 C27.3069519,0 27.8802139,0.23574235 28.3764706,0.707227051 L35.259893,7.60804858 L35.259893,7.60804858 Z" id="形状" fill="#000000" fill-rule="nonzero"></path>
                    </g>
                </g>
            </g>
        </g>
    </g>
</svg>