<?xml version="1.0" encoding="UTF-8"?>
<svg width="76px" height="76px" viewBox="0 0 76 76" version="1.1" xmlns="http://www.w3.org/2000/svg" xmlns:xlink="http://www.w3.org/1999/xlink">
    <title>编组 12</title>
    <defs>
        <linearGradient x1="50%" y1="0.947880245%" x2="50%" y2="100%" id="linearGradient-1">
            <stop stop-color="#A1FFA1" offset="0%"></stop>
            <stop stop-color="#276F27" offset="100%"></stop>
        </linearGradient>
        <filter color-interpolation-filters="auto" id="filter-2">
            <feColorMatrix in="SourceGraphic" type="matrix" values="0 0 0 0 1.000000 0 0 0 0 1.000000 0 0 0 0 1.000000 0 0 0 1.000000 0"></feColorMatrix>
        </filter>
    </defs>
    <g id="页面-1" stroke="none" stroke-width="1" fill="none" fill-rule="evenodd">
        <g id="画板" transform="translate(-137.000000, -1124.000000)">
            <g id="编组-2" transform="translate(137.000000, 1124.000000)">
                <rect id="矩形备份-2" fill="url(#linearGradient-1)" x="0" y="0" width="76" height="76" rx="23.31"></rect>
                <g filter="url(#filter-2)" id="ic-menu-analysis">
                    <g transform="translate(22.000000, 25.000000)">
                        <path d="M30.2222117,0 L3.77778833,0 C1.69132023,0 0,1.25911832 0,2.81248969 L0,19.687475 C0,21.2408463 1.69127275,22.4999647 3.77778833,22.4999647 L30.2222117,22.4999647 C32.3087273,22.4999647 34,21.2408463 34,19.687475 L34,2.81248969 C34,1.25911832 32.3087273,0 30.2222117,0 Z M11.7287977,15.9421706 C12.2718056,16.3462442 12.2718056,17.0009725 11.7287977,17.4052346 C11.4573888,17.607295 11.1018412,17.7082073 10.7462936,17.7082073 C10.390746,17.7082073 10.0351984,17.6072478 9.76378942,17.4052346 L3.8683846,13.016184 C3.32537679,12.6119219 3.32537679,11.9571936 3.8683846,11.55312 L9.76378942,7.16406936 C10.3065598,6.75999579 11.1859799,6.75999579 11.7287503,7.16406936 C12.2717581,7.56814293 12.2717581,8.22287126 11.7287503,8.62713337 L6.81608701,12.2845342 L11.7287977,15.9421706 L11.7287977,15.9421706 Z M20.573282,5.52133331 L16.2575664,17.514301 C16.0919956,17.9771027 15.5303272,18.2813008 14.9167607,18.2813008 C14.7973427,18.2813008 14.6765002,18.2701302 14.5558951,18.2459509 C13.8148385,18.0983294 13.3751047,17.5306563 13.5731535,16.9789141 L17.888869,4.98580503 C18.0883423,4.43321451 18.8524277,4.1067223 19.5907778,4.25434372 C20.3318344,4.40172948 20.7715681,4.96959118 20.573282,5.52133331 L20.573282,5.52133331 Z M30.1316154,13.0162311 L24.2362106,17.4052818 C23.9648016,17.6073421 23.609254,17.7082545 23.2537064,17.7082545 C22.8981588,17.7082545 22.5426112,17.607295 22.2712023,17.4052818 C21.7281944,17.0010196 21.7281944,16.3462913 22.2712023,15.9422177 L27.183913,12.2845813 L22.2712497,8.6271805 C21.7282419,8.2229184 21.7282419,7.56819007 22.2712497,7.16411649 C22.8140201,6.76004292 23.6934402,6.76004292 24.2362106,7.16411649 L30.1316154,11.5531671 C30.6746232,11.9572407 30.6746232,12.611969 30.1316154,13.0162311 Z M32.1111058,30 L1.88894165,30 C0.850075972,30 4.7482321e-05,29.1562672 4.7482321e-05,28.1249912 C4.7482321e-05,27.0937622 0.850028489,26.2499823 1.88894165,26.2499823 L32.1111058,26.2499823 C33.1499715,26.2499823 34,27.0937151 34,28.1249912 C34,29.1562672 33.1499715,30 32.1111058,30 L32.1111058,30 Z" id="形状" fill="#2B2B2B" fill-rule="nonzero"></path>
                    </g>
                </g>
            </g>
        </g>
    </g>
</svg>