<?xml version="1.0" encoding="UTF-8"?>
<svg width="76px" height="76px" viewBox="0 0 76 76" version="1.1" xmlns="http://www.w3.org/2000/svg" xmlns:xlink="http://www.w3.org/1999/xlink">
    <title>编组 7备份 2</title>
    <defs>
        <linearGradient x1="50%" y1="0%" x2="50%" y2="100%" id="linearGradient-1">
            <stop stop-color="#B7FFE7" offset="0%"></stop>
            <stop stop-color="#3ACC9B" offset="100%"></stop>
        </linearGradient>
        <filter color-interpolation-filters="auto" id="filter-2">
            <feColorMatrix in="SourceGraphic" type="matrix" values="0 0 0 0 1.000000 0 0 0 0 1.000000 0 0 0 0 1.000000 0 0 0 1.000000 0"></feColorMatrix>
        </filter>
    </defs>
    <g id="页面-1" stroke="none" stroke-width="1" fill="none" fill-rule="evenodd">
        <g id="画板" transform="translate(-136.000000, -713.000000)">
            <g id="编组-7备份" transform="translate(136.000000, 713.000000)">
                <rect id="矩形备份-3" fill="url(#linearGradient-1)" x="0" y="0" width="76" height="76" rx="23.31"></rect>
                <g filter="url(#filter-2)" id="音乐" opacity="0.99">
                    <g transform="translate(20.099174, 21.355372)">
                        <path d="M0.257537747,32.2391365 C0.893350328,33.942124 2.62892925,35.0574684 4.81049873,35.1650303 C6.9920682,35.2725921 9.28819592,34.3560302 10.8339528,32.7606045 C12.3797096,31.1651789 12.9402584,29.1332726 12.3044457,27.4302851 C11.6686332,25.7272975 9.93305424,24.6119531 7.75148476,24.5043912 C5.56991528,24.3968294 3.27378755,25.3133913 1.72803069,26.9088169 C0.182273832,28.5042426 -0.378274914,30.536149 0.257537747,32.2391365 L0.257537747,32.2391365 Z" id="路径" fill="#4C4C4C" fill-rule="nonzero"></path>
                        <path d="M19.7286779,27.8423595 C20.3644169,29.5453653 22.0999843,30.6607471 24.2815793,30.7683325 C26.4631742,30.8759179 28.7593428,29.9593612 30.3051016,28.363936 C31.8508604,26.7685108 32.4113593,24.7366131 31.7754543,23.0336736 C31.1397153,21.3306678 29.4041479,20.215286 27.222553,20.1077006 C25.040958,20.0001152 22.7447894,20.9166719 21.1990306,22.5120971 C19.6532718,24.1075223 19.0927729,26.1394199 19.7286779,27.8423595 L19.7286779,27.8423595 Z" id="路径" fill="#4C4C4C" fill-rule="nonzero"></path>
                        <path d="M27.3704347,0.157626233 L12.6025067,4.75251316 C11.0859151,5.20009971 10.0485389,6.56697826 10.0495868,8.11631715 L10.0495868,28.2644628 L12.8861644,28.2644628 L12.8861644,11.9309403 C12.8861644,11.6014955 13.0989077,11.3067292 13.4357512,11.2200332 L28.2214078,6.60780711 C28.2923222,6.5904679 28.3632366,6.57312873 28.434151,6.57312873 C28.8064517,6.57312873 29.1964811,6.86789505 29.196481,7.31871413 L29.196481,24.3111261 L32.0330579,24.3111261 L32.0330579,3.50409106 C32.0330579,1.1459604 29.692882,-0.535941576 27.3704347,0.157626233 Z" id="路径" fill="#4C4C4C" fill-rule="nonzero"></path>
                    </g>
                </g>
            </g>
        </g>
    </g>
</svg>