<?xml version="1.0" encoding="UTF-8"?>
<svg width="76px" height="76px" viewBox="0 0 76 76" version="1.1" xmlns="http://www.w3.org/2000/svg" xmlns:xlink="http://www.w3.org/1999/xlink">
    <title>编组 15</title>
    <defs>
        <linearGradient x1="50%" y1="2.46667395%" x2="50%" y2="100%" id="linearGradient-1">
            <stop stop-color="#F0ACFF" offset="0%"></stop>
            <stop stop-color="#8E519B" offset="100%"></stop>
        </linearGradient>
        <filter color-interpolation-filters="auto" id="filter-2">
            <feColorMatrix in="SourceGraphic" type="matrix" values="0 0 0 0 1.000000 0 0 0 0 1.000000 0 0 0 0 1.000000 0 0 0 1.000000 0"></feColorMatrix>
        </filter>
    </defs>
    <g id="页面-1" stroke="none" stroke-width="1" fill="none" fill-rule="evenodd">
        <g id="画板" transform="translate(-138.000000, -1723.000000)">
            <g id="编组-5" transform="translate(138.000000, 1723.000000)">
                <g id="编组-7备份-5" fill="url(#linearGradient-1)">
                    <rect id="矩形备份-3" x="0" y="0" width="76" height="76" rx="23.31"></rect>
                </g>
                <g filter="url(#filter-2)" id="函数注册">
                    <g transform="translate(22.000000, 23.000000)">
                        <path d="M33.7782609,3.17826087 C33.5565217,2.51304346 33.1869565,1.92173913 32.7434783,1.40434782 C31.9304348,0.517391314 30.8217391,0 29.7130435,0 L4.50869564,0 C4.28695651,0 4.13913042,0 3.99130436,0.0739130449 C2.88260872,0.14782609 1.84782609,0.739130449 1.18260869,1.55217391 C0.517391281,2.36521737 0.0739130449,3.32608696 0,4.36086955 L0,23.2826087 C0,23.4304348 0,23.5782609 0.0739130449,23.8 C0.14782609,24.7608696 0.517391314,25.6478261 1.10869564,26.3130435 C1.77391304,27.2 2.80869564,27.7913044 3.91739131,27.9391304 C4.36086958,28.0130435 4.80434782,28.0130435 5.24782609,28.0130435 L16.1869565,28.0130435 L16.1869565,32.226087 L5.7652174,32.226087 C5.39565218,32.226087 5.02608696,32.5217391 4.95217391,32.8173913 C4.80434782,33.2608696 4.95217391,33.7043478 5.39565218,33.926087 C5.46956522,34 5.7652174,34 5.98695651,34 L28.0869565,34 C28.3086956,34 28.4565217,34 28.6782609,33.926087 C29.0478261,33.7782609 29.2695652,33.3347826 29.1956522,32.9652174 C29.1217391,32.5956522 28.9,32.3 28.6043478,32.226087 C28.4565217,32.1521739 28.2347826,32.1521739 28.0869565,32.1521739 L17.8869565,32.1521739 L17.8869565,27.9391304 L29.1217391,27.9391304 C29.4913044,27.9391304 29.7869565,27.9391304 30.1565217,27.8652174 C30.8217391,27.7913044 31.4869565,27.4956522 32.0043478,27.126087 C32.8913043,26.4608696 33.6304348,25.426087 33.8521739,24.3173913 C33.926087,24.0217391 33.926087,23.726087 34,23.4304348 L34,4.50869564 C33.926087,4.06521737 33.926087,3.62173913 33.7782609,3.17826087 Z M24.0956522,10.4217391 L20.1782609,14.7086956 C20.1043478,14.7826087 20.1043478,14.8565217 20.1782609,14.9304348 L22.2478261,19.2173913 L22.2478261,19.2913044 C22.2478261,19.3652174 22.173913,19.4391304 22.1,19.4391304 L20.6956522,19.4391304 C20.6217391,19.4391304 20.5478261,19.3652174 20.5478261,19.3652174 L19.1434783,16.2608696 C19.1434783,16.2608696 19.1434783,16.1869565 19.0695652,16.1869565 C18.9956522,16.1130435 18.9217391,16.1130435 18.8478261,16.1869565 L16.1869565,19.3652174 C16.1869565,19.4391304 16.1130435,19.4391304 16.0391304,19.4391304 L14.4869565,19.4391304 C14.4130435,19.4391304 14.4130435,19.4391304 14.3391304,19.3652174 C14.2652174,19.2913044 14.2652174,19.2173913 14.3391304,19.1434783 L18.2565217,14.7826087 C18.3304348,14.7086956 18.3304348,14.6347826 18.2565217,14.5608696 L16.7782609,11.5304348 L13.8217391,11.5304348 L11.9,20.9173913 C11.9,20.9913044 11.826087,21.0652174 11.7521739,21.0652174 L10.3478261,21.0652174 C10.273913,21.0652174 10.2,20.9173913 10.2,20.8434783 L12.1217391,11.5304348 L10.0521739,11.5304348 C9.97826087,11.5304348 9.90434782,11.3826087 9.90434782,11.3086956 L10.126087,10.2 C10.126087,10.126087 10.2,10.0521739 10.273913,10.0521739 L12.4173913,10.0521739 L12.6391304,9.01739131 C13.0826087,6.8 14.1913044,5.83913045 16.4826087,5.83913045 C16.926087,5.83913045 17.1478261,5.83913045 17.6652174,5.98695651 L17.3695652,7.4652174 C17,7.39130436 16.6304348,7.31739131 16.1869565,7.31739131 C15.1521739,7.31739131 14.5608696,7.90869567 14.3391304,9.09130436 L14.1913044,9.97826087 L14.1913044,10.0521739 L17.8130435,10.0521739 C17.8869565,10.0521739 17.9608696,10.126087 17.9608696,10.126087 L19.3652174,13.1565217 C19.3652174,13.1565217 19.3652174,13.2304348 19.4391304,13.2304348 C19.5130435,13.3043478 19.5869565,13.3043478 19.6608696,13.2304348 L22.3217391,10.0521739 C22.3217391,9.97826087 22.3956522,9.97826087 22.4695652,9.97826087 L24.0217391,9.97826087 C24.0956522,9.97826087 24.0956522,9.97826087 24.1695652,10.0521739 C24.1695652,10.2 24.1695652,10.3478261 24.0956522,10.4217391 L24.0956522,10.4217391 Z" id="形状" fill="#3E3E3E" fill-rule="nonzero"></path>
                    </g>
                </g>
            </g>
        </g>
    </g>
</svg>