<?xml version="1.0" encoding="UTF-8"?>
<svg width="76px" height="76px" viewBox="0 0 76 76" version="1.1" xmlns="http://www.w3.org/2000/svg" xmlns:xlink="http://www.w3.org/1999/xlink">
    <title>编组 10</title>
    <defs>
        <linearGradient x1="50%" y1="0%" x2="50%" y2="100%" id="linearGradient-1">
            <stop stop-color="#B0D5FF" offset="0%"></stop>
            <stop stop-color="#3B8CE6" offset="100%"></stop>
        </linearGradient>
        <filter color-interpolation-filters="auto" id="filter-2">
            <feColorMatrix in="SourceGraphic" type="matrix" values="0 0 0 0 1.000000 0 0 0 0 1.000000 0 0 0 0 1.000000 0 0 0 1.000000 0"></feColorMatrix>
        </filter>
    </defs>
    <g id="页面-1" stroke="none" stroke-width="1" fill="none" fill-rule="evenodd">
        <g id="画板" transform="translate(-137.000000, -910.000000)">
            <g id="编组-10" transform="translate(137.000000, 910.000000)">
                <g id="编组-3备份-7" fill="url(#linearGradient-1)">
                    <rect id="矩形备份" x="0" y="0" width="76" height="76" rx="23.31"></rect>
                </g>
                <g filter="url(#filter-2)" id="系统设置备份">
                    <g transform="translate(23.867769, 20.727273)">
                        <path d="M14.1253651,5.39383093e-07 C7.77963838,-0.00174387396 2.2121981,4.22786415 0.515390337,10.3395567 C-1.18141743,16.4512492 1.40924801,22.9436174 6.84844275,26.2105788 L6.84844275,28.264463 L21.4022874,28.264463 L21.4022874,26.2105788 C25.6536871,23.6598322 28.2575658,19.0695073 28.2644628,14.1133891 C28.123404,6.3706257 21.8720719,0.130660651 14.1253651,5.39383093e-07 Z M22.646528,14.4714056 L22.4014503,14.4714056 C21.8251429,14.4996424 21.3171231,14.096648 21.2137661,13.5292568 C20.3587557,9.70417855 16.9141613,7.01933151 12.9942372,7.12264548 C12.6728361,7.14527482 12.3574097,7.02749122 12.1295816,6.79977377 C11.9017535,6.57205633 11.7839127,6.25678313 11.806553,5.93553808 C11.7839127,5.61429303 11.9017535,5.29901983 12.1295816,5.07130239 C12.3574097,4.84358494 12.6728361,4.72580134 12.9942372,4.74843068 C18.0129456,4.72525173 22.3865705,8.16000231 23.5514302,13.0393395 C23.6784931,13.6995412 23.2493717,14.3387056 22.5899716,14.4714056 L22.646528,14.4714056 Z M6.84844275,30.6009918 L21.4022874,30.6009918 L21.4022874,33.9173554 L6.84844275,33.9173554 L6.84844275,30.6009918 Z" id="形状" fill="#000000" fill-rule="nonzero"></path>
                    </g>
                </g>
            </g>
        </g>
    </g>
</svg>