<?xml version="1.0" encoding="UTF-8"?>
<svg width="76px" height="76px" viewBox="0 0 76 76" version="1.1" xmlns="http://www.w3.org/2000/svg" xmlns:xlink="http://www.w3.org/1999/xlink">
    <title>编组 5备份 2</title>
    <defs>
        <linearGradient x1="50%" y1="0%" x2="50%" y2="100%" id="linearGradient-1">
            <stop stop-color="#FBA56D" offset="0%"></stop>
            <stop stop-color="#EE6341" offset="100%"></stop>
        </linearGradient>
        <filter color-interpolation-filters="auto" id="filter-2">
            <feColorMatrix in="SourceGraphic" type="matrix" values="0 0 0 0 1.000000 0 0 0 0 1.000000 0 0 0 0 1.000000 0 0 0 1.000000 0"></feColorMatrix>
        </filter>
    </defs>
    <g id="页面-1" stroke="none" stroke-width="1" fill="none" fill-rule="evenodd">
        <g id="画板" transform="translate(-136.000000, -109.000000)">
            <g id="编组-5备份" transform="translate(136.000000, 109.000000)">
                <rect id="矩形" fill="url(#linearGradient-1)" x="0" y="0" width="76" height="76" rx="23.31"></rect>
                <g filter="url(#filter-2)" id="运动">
                    <g transform="translate(25.752066, 18.842975)">
                        <path d="M27.3030316,11.6223146 C26.7107261,10.7376552 25.4867823,10.4874075 24.5784263,11.083493 L20.1958283,13.9110665 L15.3990791,7.67877166 C15.3791814,7.64044544 15.3597463,7.62105688 15.3199508,7.60166832 C15.2607203,7.50562731 15.181592,7.42852397 15.0830286,7.35142062 C14.9645675,7.25537961 14.8461064,7.17827627 14.7276453,7.12056149 C14.7077476,7.10117292 14.6684148,7.08223526 14.6286192,7.08223526 C14.5101581,7.02452048 14.3921598,6.98619425 14.2538009,6.96680569 C14.2144681,6.94741713 14.1746726,6.92847947 14.1353398,6.92847947 C14.0367765,6.90909091 13.9183154,6.90909091 13.819752,6.90909091 C13.5629321,6.90909091 13.3260099,6.94741713 13.0895504,7.04390904 L3.21933437,10.8909601 C2.68625942,11.1024307 2.25221054,11.5258227 2.07451888,12.0641935 L0.10047568,17.8347701 C-0.235009862,18.8542476 0.31750012,19.93144 1.34385451,20.2777287 C1.56134169,20.3354435 1.77836613,20.3737697 1.97549281,20.3737697 C2.80425778,20.3737697 3.57471768,19.8737252 3.85097267,19.0657182 L5.52932586,14.1414748 L11.2936616,11.8910491 L9.95079393,19.6816432 L0.297602357,34.7429473 C-0.274805388,35.6469953 0.00144960282,36.8396172 0.929240654,37.3973765 C1.24529117,37.5899094 1.62057224,37.6859504 1.97549281,37.6859504 C2.62702887,37.6859504 3.27810219,37.3590503 3.65338326,36.7819024 L12.6943716,22.682361 L20.0380344,25.0676048 L14.3926225,30.5496075 C13.6226253,31.2998997 13.6226253,32.5308479 14.3926225,33.2811401 C15.1621569,34.0314322 16.4258963,34.0314322 17.1954307,33.2811401 L25.0916035,25.5870379 C25.5654479,25.1059311 25.7630373,24.4327422 25.6047807,23.7789419 C25.4469868,23.1251416 24.9731424,22.6057086 24.3216063,22.394238 L14.0761093,19.06662 L15.0039003,13.5846173 L18.1625545,17.6819161 C18.7941928,18.4899231 19.9589061,18.7013936 20.8279293,18.1242458 L26.7500589,14.2771947 C27.6579522,13.699596 27.9147722,12.4875855 27.3030316,11.6223146 L27.3030316,11.6223146 Z" id="路径" fill="#1A1A1A" fill-rule="nonzero"></path>
                        <path d="M13.1900826,2.82644628 C13.1900826,4.38744946 14.4555257,5.65289256 16.0165289,5.65289256 C17.5775321,5.65289256 18.8429752,4.38744946 18.8429752,2.82644628 C18.8429752,1.2654431 17.5775321,0 16.0165289,0 C14.4555257,0 13.1900826,1.2654431 13.1900826,2.82644628 L13.1900826,2.82644628 Z" id="路径" fill="#1A1A1A" fill-rule="nonzero"></path>
                    </g>
                </g>
            </g>
        </g>
    </g>
</svg>