<?xml version="1.0" encoding="UTF-8"?>
<svg width="76px" height="76px" viewBox="0 0 76 76" version="1.1" xmlns="http://www.w3.org/2000/svg" xmlns:xlink="http://www.w3.org/1999/xlink">
    <title>编组 3</title>
    <defs>
        <linearGradient x1="50%" y1="0%" x2="50%" y2="100%" id="linearGradient-1">
            <stop stop-color="#FFE6B4" offset="0%"></stop>
            <stop stop-color="#FF9800" offset="100%"></stop>
        </linearGradient>
        <filter color-interpolation-filters="auto" id="filter-2">
            <feColorMatrix in="SourceGraphic" type="matrix" values="0 0 0 0 1.000000 0 0 0 0 1.000000 0 0 0 0 1.000000 0 0 0 1.000000 0"></feColorMatrix>
        </filter>
    </defs>
    <g id="页面-1" stroke="none" stroke-width="1" fill="none" fill-rule="evenodd">
        <g id="画板" transform="translate(-137.000000, -1325.000000)">
            <g id="编组-3" transform="translate(137.000000, 1325.000000)">
                <g id="编组-7备份-4" fill="url(#linearGradient-1)">
                    <rect id="矩形备份-3" x="0" y="0" width="76" height="76" rx="23.31"></rect>
                </g>
                <g filter="url(#filter-2)" id="报价">
                    <g transform="translate(21.000000, 21.000000)">
                        <path d="M32.0165644,0.165551696 C28.5537689,0.162203459 23.5803578,0.165551696 20.1175622,0.165551696 C18.7264679,0.165551696 18.1355018,1.00595907 18.1355018,2.16444892 C18.1321818,5.58299843 18.148782,11.2214288 18.148782,13.900018 C18.148782,15.3029291 18.8692294,16.1634259 20.1175622,16.1634259 C22.0066616,16.1701224 30.3764676,16.1667742 32.0165644,16.1634259 C33.4209389,16.1600777 33.9986248,15.6310563 33.9986248,14.1645287 L33.9986248,2.16444892 C33.9986248,1.05953085 33.1686163,0.165551696 32.0165644,0.165551696 L32.0165644,0.165551696 Z M29.9913436,8.51940189 C29.8718224,8.94127969 29.5796594,9.16895978 29.1447349,9.16895978 C28.1155244,9.17230801 27.0863138,9.16895978 26.0571032,9.16895978 C25.0278926,9.16895978 23.9986821,9.17230801 22.9694715,9.16561154 C22.332025,9.1622633 21.943581,8.50935718 22.1494231,7.80957574 C22.2689443,7.40109088 22.5577873,7.17675903 22.9794316,7.17341079 C23.7662797,7.17006256 24.5531278,7.17341079 25.3399759,7.17341079 C26.6049088,7.17341079 27.8665218,7.17006256 29.1314548,7.17341079 C29.7987817,7.17675903 30.1938657,7.80287926 29.9913436,8.51940189 L29.9913436,8.51940189 Z M13.8825382,0.00148810513 C10.4197426,-0.00186013142 5.4463315,0.00148810513 1.98353593,0.00148810513 C0.81820396,0.00148810513 0.00147557071,0.728055436 0.00147557071,2.00038533 L0.00147557071,14.0004651 C0.00147557071,15.0953385 0.864684438,15.9960141 1.98353593,15.9993623 C3.66015315,16.0060588 12.0299591,16.0027106 13.8825382,15.9993623 C14.9250289,15.9993623 15.8645985,15.1924373 15.8645985,14.0004651 L15.8645985,2.00038533 C15.8645985,0.731403673 15.0445501,0.00148810513 13.8825382,0.00148810513 Z M10.9077876,9.00154795 C9.73581556,9.01159266 8.92572724,9.00154795 8.92572724,9.00154795 C8.92572724,9.00154795 8.92904728,10.3374943 8.92572724,11.0004452 C8.92572724,11.3988853 8.4443223,12.0082644 7.93967711,12.0082644 C7.49479254,12.0082644 6.95362698,11.5662971 6.94366688,11.0004452 C6.92706671,9.79173178 6.94366688,9.00154795 6.94366688,9.00154795 C6.94366688,9.00154795 6.16345887,9.02163737 4.96160652,9.00154795 C4.5798026,9.00154795 3.96227626,8.5294466 3.96227626,7.99707698 C3.96227626,7.56850271 4.4337211,7.00265073 4.96160652,7.00265073 L6.94366688,7.00265073 C6.94366688,7.00265073 6.92706671,6.20242219 6.94366688,5.00375351 C6.95362698,4.43790153 7.40847166,3.98923784 7.93967711,3.98923784 C8.38788172,3.98923784 8.92572724,4.38432975 8.92572724,5.00375351 C8.93236731,6.17228807 8.92572724,7.00265073 8.92572724,7.00265073 C8.92572724,7.00265073 9.73581556,6.98590955 10.9077876,7.00265073 C11.4854735,7.0093472 11.9137579,7.56850271 11.9137579,7.99707698 C11.9137579,8.45243716 11.2729914,8.99819971 10.9077876,9.00154795 Z M13.8825382,17.9982596 C10.4197426,17.9949113 5.4463315,17.9982596 1.98353593,17.9982596 C0.496160652,17.9982596 0.00147557071,18.443575 0.00147557071,19.9971568 C-0.00184446339,23.4090098 0.00147557071,30.2226712 0.00147557071,31.9972366 C0.00147557071,33.2293876 0.944365256,33.9961338 1.98353593,33.9961338 C3.70995367,34.0028303 12.1063199,33.999482 13.8825382,33.9961338 C15.2869126,33.9927856 15.8646084,33.4604159 15.8646084,31.9972366 L15.8646084,19.9971568 C15.8679186,18.895587 15.03459,17.9982596 13.8825382,17.9982596 Z M11.5219939,29.6266851 C11.0605092,30.078697 10.4230626,30.0887417 9.96489792,29.6367298 C9.36397174,29.0407437 8.76968564,28.4347129 8.17871957,27.8286821 C8.10567882,27.7550209 8.06251838,27.6478773 7.99279766,27.5373855 C7.25907012,28.2840422 6.59838334,28.960386 5.93105648,29.6266851 C5.54261249,30.0184288 5.09108785,30.078697 4.63292315,29.8275793 C4.17475844,29.5764615 3.90251564,29.0675296 4.02867694,28.5786871 C4.08511752,28.3577034 4.23119902,28.1333716 4.39388069,27.9659598 C5.02468717,27.3030089 5.67873389,26.6634957 6.34274071,25.9938484 C6.25641982,25.903446 6.19001914,25.8264366 6.11365836,25.7527754 C5.50609212,25.1366999 4.88856577,24.5239726 4.29095963,23.9012006 C3.92907592,23.5228499 3.89919561,22.9971767 4.18803858,22.5552095 C4.48684165,22.0965011 5.03464727,21.8721692 5.49613201,22.0563223 C5.67873389,22.1299835 5.84805563,22.2639129 5.98749706,22.4045389 C6.63822374,23.0507485 7.27235026,23.7070029 7.97287745,24.4201773 C8.15879936,24.2058901 8.31152093,24.0083442 8.48748274,23.8275394 C8.93568734,23.3654827 9.39053202,22.9134708 9.84205666,22.4547624 C10.4164226,21.8755175 11.0372689,21.8420351 11.5419141,22.3576635 C12.0332792,22.859899 12.0000788,23.4994122 11.4456331,24.0585677 C10.8845474,24.6277679 10.3234616,25.1936199 9.76237584,25.7628201 C9.69597515,25.8331331 9.63289451,25.903446 9.54325359,26.0005449 C9.9051373,26.3621545 10.2537409,26.7103711 10.6023445,27.0585877 C10.9243878,27.3833666 11.2530711,27.7047973 11.5684744,28.0362727 C12.013359,28.5016776 11.9901187,29.1679767 11.5219939,29.6266851 L11.5219939,29.6266851 Z M33.9953048,19.9971568 C33.9953048,18.9993823 32.9362139,17.9982596 32.0132444,17.9982596 C28.5504488,17.9949113 23.5770377,17.9982596 20.1142422,17.9982596 C19.0916717,17.9982596 18.1321818,19.0563023 18.1321818,19.9971568 L18.1321818,31.9972366 C18.1321818,32.8778228 19.1182319,33.9961338 20.1142422,33.9961338 C21.7775793,34.0028303 30.1739455,33.999482 32.0132444,33.9961338 C33.4176188,33.9927856 33.9986248,33.0452346 33.9986248,31.578707 C34.0019448,28.1199786 33.9986248,23.4592334 33.9953048,19.9971568 L33.9953048,19.9971568 Z M29.0351738,28.9972166 L23.1553934,28.9972166 C22.3685453,28.9972166 22.0963025,28.53516 22.0963025,27.9994421 C22.0963025,27.4369384 22.5810275,26.9983194 23.0889927,26.9983194 L29.0384938,26.9983194 C29.5331789,26.9983194 30.031184,27.403456 30.031184,27.9994421 C30.027864,28.5385082 29.4269378,28.9972166 29.0351738,28.9972166 Z M29.0351738,24.9994222 C26.8074309,25.0228598 26.0869835,24.9960739 23.0856727,24.9994222 C22.6939087,24.9994222 22.0929825,24.5909373 22.0929825,23.9982995 C22.0929825,23.4458404 22.5777075,23.0038732 22.9495513,23.0038732 C24.1547237,23.0038732 27.5577586,22.9971767 29.0351738,22.9971767 C29.5066187,23.0072214 30.024544,23.5128052 30.0278799,23.9982995 C30.031184,24.487142 29.5132587,24.9927257 29.0351738,24.9994222 L29.0351738,24.9994222 Z" id="形状" fill="#040000" fill-rule="nonzero"></path>
                    </g>
                </g>
            </g>
        </g>
    </g>
</svg>