<svg xmlns="http://www.w3.org/2000/svg"
    width="15"
    height="5"
    preserveAspectRatio="none meet"
    viewBox="0,0,15,5">
    <rect
        width="100%"
        height="100%"
        fill="#eeeeee" />
    <path
        d="M11 7 C92 27,63 2,148 36"
        stroke="#38e5e5"
        fill="none" />
    <path
        fill="#ea7070"
        d="M28.74 27.82L28.58 27.66L28.76 27.83Q25.12 27.62 24.01 30.97L23.98 30.93L24.00 30.95Q23.69 32.09 23.57 33.15L23.59 33.17L23.60 33.18Q23.38 35.21 24.37 36.54L24.27 36.44L24.28 36.44Q25.63 37.65 28.11 37.69L28.09 37.67L28.22 37.80Q29.98 37.77 31.38 36.63L31.30 36.54L31.35 36.59Q32.77 35.46 32.77 33.67L32.69 33.59L32.86 33.76Q32.86 33.41 32.78 33.03L32.75 33.01L32.67 32.92Q32.40 27.74 28.60 27.67ZM28.53 40.17L28.51 40.15L28.65 40.29Q24.84 40.51 23.05 38.50L22.92 38.37L22.98 38.43Q22.66 39.36 22.20 40.73L22.36 40.89L22.37 40.90Q20.35 41.58 19.09 42.15L19.07 42.13L19.02 42.07Q21.28 36.19 21.28 29.68L21.22 29.62L21.19 29.59Q21.30 21.40 17.87 13.56L17.82 13.50L17.82 13.51Q20.07 14.77 21.40 15.22L21.50 15.32L21.40 15.22Q23.48 21.83 23.63 27.65L23.71 27.73L23.73 27.75Q25.11 25.02 28.84 25.06L28.97 25.19L28.95 25.17Q32.18 25.20 33.66 27.06L33.67 27.07L33.68 27.08Q35.37 29.23 35.52 32.81L35.70 32.98L35.60 32.88Q35.70 34.09 35.63 35.69L35.60 35.66L35.67 35.73Q35.52 37.07 34.64 38.21L34.59 38.16L34.71 38.28Q32.98 40.01 28.64 40.27ZM34.01 42.68L33.95 42.62L34.03 42.70Q35.47 42.65 36.95 41.97L37.03 42.05L37.01 42.02Q38.25 40.86 38.28 38.92L38.28 38.91L38.09 38.73Q38.20 38.34 38.05 37.16L38.03 37.14L38.07 37.18Q37.90 36.41 37.79 35.49L37.77 35.47L37.94 35.64Q37.02 30.77 35.46 28.71L35.46 28.71L35.50 28.75Q35.36 28.57 34.56 27.69L34.56 27.70L34.71 27.84Q34.48 27.58 33.95 26.78L33.86 26.69L33.97 26.80Q32.28 24.77 28.93 24.81L29.02 24.89L29.02 24.89Q26.78 24.75 25.53 25.36L25.61 25.45L25.65 25.48Q25.24 20.89 24.63 17.69L24.65 17.71L24.68 17.74Q23.85 17.48 22.36 17.10L22.40 17.13L22.51 17.24Q22.38 16.50 21.92 15.06L21.79 14.93L21.81 14.95Q19.43 14.20 17.18 12.64L17.10 12.55L17.09 12.55Q21.03 20.90 21.03 29.70L20.97 29.63L20.87 29.54Q21.03 36.66 18.56 42.87L18.43 42.74L18.37 42.69Q19.18 42.46 20.51 41.89L20.46 41.85L20.49 41.87Q20.23 42.60 19.62 44.12L19.56 44.06L19.60 44.11Q21.63 43.24 24.41 42.71L24.45 42.75L24.76 40.85L24.73 40.82Q27.07 42.55 34.00 42.67ZM30.23 29.99L30.25 30.01L30.27 30.02Q31.38 30.11 31.91 30.49L31.74 30.32L31.77 30.35Q32.17 30.94 32.40 32.96L32.42 32.98L32.40 32.96Q32.55 34.78 31.29 36.09L31.25 36.05L31.38 36.18Q30.04 37.41 28.10 37.30L28.18 37.38L28.20 37.40Q27.25 37.52 25.77 37.02L25.81 37.06L25.81 37.06Q25.44 36.43 25.44 35.89L25.60 36.06L25.48 35.94Q25.44 32.81 27.00 31.22L27.16 31.37L26.94 31.19L26.97 31.22Q28.51 29.94 30.26 30.02Z" />
    <path
        d="M3 13 C91 23,81 41,138 40"
        stroke="#50b9dc"
        fill="none" />
    <path
        d="M11 43 C82 10,80 34,133 44"
        stroke="#8aa3ef"
        fill="none" />
    <path
        fill="#744fe2"
        d="M65.01 30.35L64.93 30.27L64.97 30.32Q65.05 29.90 65.01 29.48L65.19 29.66L65.12 29.59Q64.89 29.06 64.59 28.87L64.62 28.90L64.73 29.01Q63.93 28.36 63.05 28.51L63.10 28.56L63.13 28.59Q62.11 28.63 60.47 29.73L60.41 29.68L60.30 29.56Q58.92 30.50 58.92 31.68L59.05 31.82L58.96 31.73Q58.90 32.92 58.90 36.24L58.92 36.26L59.00 36.34Q58.93 38.86 59.09 40.88L59.00 40.79L59.14 40.93Q57.34 40.84 57.34 40.84L57.28 40.78L57.32 40.82Q56.37 40.83 55.65 40.90L55.57 40.82L55.61 40.87Q56.09 38.41 56.17 36.17L56.15 36.15L56.24 36.24Q56.38 31.58 55.73 30.29L55.65 30.21L55.71 30.27Q55.43 29.69 54.86 29.38L54.76 29.28L54.73 29.25Q54.00 28.63 52.44 28.52L52.43 28.51L52.41 28.49Q50.34 28.21 49.81 29.81L49.85 29.85L49.92 29.92Q49.78 30.43 49.90 30.92L49.86 30.88L49.79 30.82Q50.54 33.66 50.20 36.44L50.10 36.35L50.22 36.46Q49.92 39.29 48.52 41.73L48.40 41.61L48.49 41.70Q47.50 41.89 45.41 42.31L45.30 42.20L45.33 42.23Q47.85 39.01 47.85 34.70L47.84 34.70L47.76 34.61Q47.85 28.84 43.81 24.61L43.76 24.55L43.84 24.64Q44.63 24.97 45.58 25.20L45.40 25.02L47.27 25.56L47.13 25.42Q47.70 26.14 48.58 27.81L48.52 27.76L48.64 27.88Q48.76 25.95 51.20 25.91L51.25 25.96L51.26 25.96Q51.32 25.84 52.31 25.92L52.26 25.86L52.34 25.94Q57.41 26.33 58.55 29.15L58.46 29.05L58.56 29.16Q60.21 26.43 65.23 25.90L65.13 25.79L65.18 25.84Q65.94 25.72 66.81 25.83L66.74 25.77L66.75 25.77Q69.11 26.11 68.95 27.67L68.90 27.62L68.90 27.62Q68.79 28.23 68.53 29.00L68.58 29.05L68.58 29.05Q67.07 31.96 67.30 35.50L67.40 35.59L67.33 35.53Q67.50 38.97 69.40 41.79L69.52 41.91L69.39 41.77Q67.81 41.52 65.98 41.30L65.97 41.29L65.88 41.19Q64.63 38.61 64.44 35.83L64.52 35.91L64.62 36.02Q64.26 32.99 64.91 30.25ZM65.77 41.69L65.63 41.56L65.78 41.70Q66.53 41.81 67.86 42.00L67.83 41.97L67.82 41.96Q68.39 42.72 69.53 44.13L69.51 44.10L69.40 43.99Q72.46 44.70 74.56 45.34L74.45 45.24L74.47 45.26Q69.45 41.34 69.18 34.83L69.26 34.90L69.23 34.87Q69.07 32.70 69.68 30.79L69.62 30.74L69.70 30.82Q69.82 29.83 69.82 29.11L69.99 29.29L69.84 29.13Q70.00 28.38 69.40 27.81L69.32 27.74L69.31 27.69L69.28 27.66Q69.35 27.15 69.27 26.66L69.26 26.65L69.22 26.60Q69.21 26.17 68.75 25.91L68.66 25.82L68.82 25.97Q68.08 25.43 67.21 25.39L67.18 25.37L67.24 25.42Q64.37 25.29 61.70 26.25L61.73 26.28L61.66 26.20Q59.68 26.89 58.50 28.30L58.46 28.26L58.43 28.22Q56.87 25.75 52.03 25.41L52.17 25.55L52.04 25.42Q51.45 25.47 51.03 25.47L50.93 25.37L50.93 25.37Q48.91 25.41 48.31 26.67L48.34 26.70L48.38 26.74Q47.98 26.16 47.30 25.09L47.33 25.12L47.41 25.20Q44.98 24.72 43.00 24.07L42.85 23.91L42.92 23.98Q47.57 28.37 47.57 34.65L47.54 34.62L47.49 34.57Q47.60 39.41 44.75 42.87L44.67 42.79L44.66 42.78Q45.19 42.70 45.68 42.62L45.70 42.64L46.64 42.43L46.62 42.42Q45.97 43.52 44.86 44.73L44.80 44.67L44.77 44.64Q46.52 44.45 49.64 43.84L49.64 43.84L49.53 43.73Q52.22 39.64 52.22 34.73L52.28 34.79L52.20 34.72Q52.28 33.99 52.20 33.16L52.13 33.08L52.22 33.17Q51.99 32.25 52.98 31.45L53.11 31.59L52.98 31.50L52.99 31.50Q53.59 31.04 54.77 30.93L54.89 31.04L54.86 31.01Q55.37 31.11 55.68 31.11L55.67 31.10L55.74 31.37L55.56 31.18Q55.85 33.90 55.73 36.27L55.87 36.40L55.74 36.27Q55.62 38.55 55.13 41.22L55.14 41.23L55.22 41.31Q56.27 41.34 56.27 41.34L56.17 41.23L56.26 41.32Q57.58 41.20 57.24 41.20L57.21 41.17L57.21 41.17Q57.37 41.82 57.33 42.28L57.22 42.16L57.22 42.16Q57.25 42.69 57.25 43.19L57.24 43.18L59.77 43.23L59.64 43.10Q60.96 43.16 62.21 43.24L62.29 43.32L62.21 43.24Q60.79 39.65 60.98 33.71L60.86 33.59L60.85 33.57Q60.91 32.50 62.09 31.74L62.04 31.68L62.22 31.86Q63.02 30.95 64.28 30.76L64.33 30.82L64.61 30.79L64.60 30.78Q64.22 32.76 64.22 34.74L64.16 34.68L64.21 34.73Q64.27 38.56 65.79 41.72ZM60.25 30.16L60.40 30.08L60.17 30.19L60.24 30.15Z" />
    <path
        fill="#6c8ded"
        d="M87.51 40.24L87.47 40.19L87.49 40.21Q85.68 40.19 84.01 40.76L83.87 40.63L83.90 40.66Q84.50 37.10 84.61 33.98L84.60 33.97L84.58 33.95Q84.59 30.81 84.37 27.15L84.53 27.31L84.51 27.29Q83.12 26.93 82.36 26.55L82.35 26.55L81.83 23.40L81.83 23.40Q82.65 24.10 84.25 24.67L84.30 24.72L84.26 24.69Q84.10 22.62 83.68 19.88L83.62 19.82L83.70 19.90Q85.96 20.56 87.59 20.40L87.53 20.34L87.36 24.90L87.35 24.88Q88.75 24.80 90.09 24.31L90.14 24.36L90.11 24.33Q90.21 25.39 89.98 27.14L89.81 26.96L89.97 27.12Q88.31 27.32 87.28 27.32L87.35 27.39L87.33 27.38Q87.44 29.65 87.44 33.92L87.42 33.90L87.38 33.86Q87.41 38.04 87.48 40.21ZM90.59 23.82L90.62 23.85L90.63 23.86Q90.31 23.92 89.70 24.15L89.69 24.14L90.09 21.38L90.16 21.45Q89.27 21.66 87.86 21.89L87.79 21.82L87.82 21.85Q87.89 21.24 88.04 19.86L88.07 19.89L88.04 19.86Q87.34 19.84 86.77 19.84L86.87 19.95L86.83 19.91Q84.81 20.02 83.17 19.30L83.09 19.22L83.18 19.30Q83.59 21.69 83.85 24.16L83.76 24.07L83.91 24.22Q83.00 23.84 81.47 22.81L81.38 22.72L81.50 22.84Q81.76 24.05 81.99 26.75L81.97 26.74L81.98 26.75Q82.44 26.98 83.62 27.40L83.66 27.44L83.69 27.47Q83.74 28.12 83.77 29.53L83.83 29.58L84.20 29.62L84.25 29.59L84.20 29.53Q84.30 30.82 84.30 32.00L84.28 31.98L84.30 31.99Q84.24 36.88 83.44 41.22L83.39 41.17L83.52 41.30Q83.61 41.09 85.55 40.56L85.65 40.66L85.67 40.68Q85.70 41.36 85.59 42.73L85.49 42.63L85.56 42.70Q86.25 42.51 87.05 42.51L87.05 42.51L87.10 42.56Q88.82 42.57 90.46 43.14L90.40 43.08L90.53 43.21Q89.23 37.53 89.42 29.61L89.35 29.55L91.73 29.14L91.73 29.14Q91.77 28.20 91.85 27.17L91.87 27.19L92.12 25.23L92.06 25.18Q91.51 25.47 90.33 25.92L90.38 25.97L90.38 25.97Q90.60 24.55 90.52 24.21L90.59 24.27L90.64 24.33Q90.56 24.06 90.64 23.87Z" />
    <path
        d="M9 26 C92 34,67 14,145 47"
        stroke="#55dc55"
        fill="none" />
    <path
        fill="#a05de3"
        d="M116.25 41.29L116.30 41.34L116.33 41.37Q113.52 41.61 112.26 41.08L112.19 41.01L112.14 40.96Q110.30 40.26 110.38 37.79L110.28 37.68L110.37 37.78Q110.47 34.33 110.47 34.90L110.44 34.88L110.48 34.91Q110.43 29.53 107.57 24.70L107.63 24.76L107.53 24.65Q109.59 25.69 111.svg.57 26.07L111.63 26.13L111.64 26.14Q113.36 30.75 113.25 35.24L113.20 35.20L113.24 35.24Q113.07 36.71 113.91 37.93L113.94 37.95L113.75 37.77Q114.69 39.12 116.21 38.93L116.33 39.05L116.65 38.87L116.75 38.98Q117.96 38.78 118.78 38.02L118.78 38.02L118.91 38.15Q119.58 37.24 119.58 36.28L119.73 36.43L119.61 36.32Q119.73 36.21 119.70 36.02L119.60 35.93L119.52 35.84Q119.51 30.66 120.66 26.32L120.76 26.43L120.61 26.27Q121.77 26.34 122.76 26.11L122.69 26.04L124.64 25.48L124.71 25.54Q122.13 30.54 122.43 36.10L122.47 36.13L122.36 36.02Q122.70 39.26 120.99 40.40L120.91 40.32L121.02 40.43Q119.72 41.30 116.41 41.45ZM118.66 43.78L118.57 43.69L118.56 43.68Q122.02 43.83 123.85 43.07L123.86 43.08L123.96 43.18Q124.80 42.35 124.80 40.94L124.81 40.94L124.78 40.92Q124.95 40.17 124.68 38.61L124.51 38.44L124.51 38.43Q124.14 35.41 124.52 32.40L124.44 32.32L124.52 32.39Q124.98 29.32 126.39 26.58L126.21 26.39L126.30 26.48Q125.60 26.74 124.27 27.16L124.27 27.15L124.32 27.21Q124.59 26.64 124.89 26.07L124.87 26.04L125.42 24.88L125.37 24.83Q123.56 25.61 120.40 26.11L120.27 25.98L120.28 25.99Q119.02 30.74 119.17 35.84L119.34 36.01L119.29 35.96Q119.40 38.09 116.74 38.58L116.58 38.42L116.35 38.66L116.11 38.57L115.18 38.44L115.14 38.40Q115.11 37.57 115.15 37.07L115.07 36.99L115.16 37.09Q115.29 32.49 114.60 28.07L114.68 28.16L113.68 28.07L113.54 27.92Q113.01 27.89 112.48 27.78L112.58 27.88L112.53 27.83Q112.22 26.49 111.svg.95 25.73L111.96 25.73L111.95 25.72Q109.13 25.27 106.88 23.97L106.86 23.95L106.97 24.06Q108.92 27.38 109.64 30.77L109.75 30.87L109.66 30.78Q110.14 32.98 109.99 36.48L110.08 36.57L110.02 36.51Q110.14 36.75 110.07 37.85L110.09 37.87L110.11 37.90Q109.94 40.23 111.svg.31 41.19L111.22 41.10L111.35 41.23Q111.72 43.47 118.73 43.85Z" />
    <path
        d="M18 48 C55 24,83 22,143 49"
        stroke="#9379e1"
        fill="none" />
    <path
        d="M3 45 C59 48,77 33,137 31"
        stroke="#5dc6e8"
        fill="none" />
</svg>