<?xml version="1.0" encoding="UTF-8"?>
<svg width="64px" height="64px" viewBox="0 0 64 64" version="1.1" xmlns="http://www.w3.org/2000/svg" xmlns:xlink="http://www.w3.org/1999/xlink">
    <title>画板备份 2</title>
    <g id="画板备份-2" stroke="none" stroke-width="1" fill="none" fill-rule="evenodd">
        <g id="删除" transform="translate(15.000000, 18.282195)" fill="#fff" fill-rule="nonzero">
            <path d="M32.2968599,0.00351899478 L1.70314006,0.00351899478 C1.24371933,-0.027135759 0.793521191,0.143607933 0.467951582,0.471980814 C0.142381973,0.800353695 -0.0269041049,1.25442821 0.00348895363,1.71780471 C-0.0269041049,2.18118121 0.142381973,2.63525572 0.467951582,2.9636286 C0.793521191,3.29200149 1.24371933,3.46274518 1.70314006,3.43209042 L3.40279116,3.43209042 L3.40279116,34.2892333 C3.40279116,36.182781 4.9247106,37.7178047 6.80209337,37.7178047 L27.1979066,37.7178047 C29.0752894,37.7178047 30.5972088,36.182781 30.5972088,34.2892333 L30.5972088,3.43209042 L32.2968599,3.43209042 C32.7562807,3.46274518 33.2064788,3.29200149 33.5320484,2.9636286 C33.857618,2.63525572 34.0269041,2.18118121 33.996511,1.71780471 C34.0269041,1.25442821 33.857618,0.800353695 33.5320484,0.471980814 C33.2064788,0.143607933 32.7562807,-0.027135759 32.2968599,0.00351899478 L32.2968599,0.00351899478 Z M13.6006978,29.1120904 C13.3839143,29.8775189 12.6902966,30.4052496 11.9010467,30.4052496 C11.1117968,30.4052496 10.4181791,29.8775189 10.2013956,29.1120904 L10.2013956,8.54066185 C10.4181791,7.77523337 11.1117968,7.24750266 11.9010467,7.24750266 C12.6902966,7.24750266 13.3839143,7.77523337 13.6006978,8.54066185 L13.6006978,29.1120904 Z M23.7986044,29.1120904 C23.5818209,29.8775189 22.8882032,30.4052496 22.0989533,30.4052496 C21.3097034,30.4052496 20.6160857,29.8775189 20.3993022,29.1120904 L20.3993022,8.54066185 C20.6160857,7.77523337 21.3097034,7.24750266 22.0989533,7.24750266 C22.8882032,7.24750266 23.5818209,7.77523337 23.7986044,8.54066185 L23.7986044,29.1120904 Z" id="形状"></path>
        </g>
    </g>
</svg>