<?xml version="1.0" encoding="UTF-8"?>
<svg width="64px" height="64px" viewBox="0 0 64 64" version="1.1" xmlns="http://www.w3.org/2000/svg" xmlns:xlink="http://www.w3.org/1999/xlink">
    <title>画板</title>
    <g id="画板" stroke="none" stroke-width="1" fill="none" fill-rule="evenodd">
        <g id="删除" transform="translate(15.000000, 8.000000)" fill="#fff" fill-rule="nonzero">
            <path d="M32.2968599,3.42857143 L23.7986044,3.42857143 L23.7986044,1.71428571 C23.7805198,0.77517102 23.0300509,0.0182403627 22.0989533,0 L11.9010467,0 C10.9623553,0 10.2013956,0.767511857 10.2013956,1.71428571 L10.2013956,3.42857143 L1.70314006,3.42857143 C1.24371933,3.39791667 0.793521191,3.56866037 0.467951582,3.89703325 C0.142381973,4.22540613 -0.0269041049,4.67948064 0.00348895363,5.14285714 C-0.0269041049,5.60623365 0.142381973,6.06030816 0.467951582,6.38868104 C0.793521191,6.71705392 1.24371933,6.88779761 1.70314006,6.85714286 L32.2968599,6.85714286 C32.7562807,6.88779761 33.2064788,6.71705392 33.5320484,6.38868104 C33.857618,6.06030816 34.0269041,5.60623365 33.996511,5.14285714 C34.0269041,4.67948064 33.857618,4.22540613 33.5320484,3.89703325 C33.2064788,3.56866037 32.7562807,3.39791667 32.2968599,3.42857143 L32.2968599,3.42857143 Z" id="形状"></path>
        </g>
    </g>
</svg>